<svg width="957" height="265" viewBox="0 0 957 265" fill="none" xmlns="http://www.w3.org/2000/svg">
<path d="M937.369 67.3166C931.647 72.8115 925.698 78.0604 919.522 83.0569C914.273 87.3026 909.295 91.8449 904.583 96.6774C904.463 96.7973 904.267 96.7847 904.179 96.6459C900.86 91.5674 898.419 86.1419 896.848 80.3694C895.675 76.0479 895.119 71.8968 895.183 67.9033C895.302 60.5284 897.296 53.5194 901.163 46.8764C902.74 44.1636 904.4 41.6338 906.147 39.2933C907.63 37.2997 909.611 35.0223 912.077 32.4672C918.72 25.5907 925.786 19.1684 933.275 13.2004C938.372 9.13126 943.179 4.77194 947.69 0.109791C947.854 -0.0605447 948.138 -0.028991 948.264 0.179197C949.986 3.05597 951.501 6.01476 952.813 9.04926C954.22 12.3046 955.248 15.4526 955.904 18.4871C958.737 31.5651 956.081 43.7346 947.924 54.9957C944.46 59.7777 940.946 63.8847 937.369 67.3166Z" fill="#3A5137"/>
<path d="M846.687 96.0846C846.441 95.9079 846.221 95.706 846.019 95.4726C839.653 88.2239 834.373 80.256 830.177 71.5626C827.212 65.4115 824.298 59.2416 821.427 53.0528C819.371 48.6051 816.967 44.2016 814.216 39.8549C814.071 39.6278 814.185 39.3313 814.437 39.2493C821.623 36.9908 829.042 36.1265 836.694 36.6627C841.987 37.0349 847.211 38.6058 852.365 41.3816C858.529 44.7 863.79 49.1035 868.143 54.5858C870.755 57.8726 873.115 61.3361 875.228 64.9762C879.385 72.1493 883.164 79.5242 886.552 87.1009C889.378 93.4223 892.665 99.7815 896.413 106.185C896.57 106.456 896.432 106.803 896.129 106.885C892.703 107.819 889.385 108.525 886.18 108.998C870.995 111.263 858.062 107.137 847.381 96.6334C847.236 96.4946 847.009 96.3117 846.687 96.0846Z" fill="#3A5137"/>
<path d="M905.611 169.606C905.252 169.978 904.88 170.376 904.507 170.811C904.293 171.063 903.895 171.026 903.731 170.742C901.555 166.931 899.669 162.988 898.079 158.907C895.833 153.153 894.792 147.261 894.962 141.236C895.076 137.129 895.864 133.016 897.328 128.909C899.164 123.761 901.763 118.972 905.126 114.55C906.873 112.247 908.703 110.02 910.614 107.863C912.255 106.014 914.286 103.964 916.702 101.724C923.415 95.5102 930.297 89.498 937.351 83.6751C940.94 80.7163 944.303 77.5998 947.445 74.3319C947.602 74.1678 947.88 74.193 948 74.3886C950.895 79.0381 953.129 83.9779 954.712 89.2141C958.529 101.838 957.053 113.736 950.284 124.909C945.811 132.29 940.36 138.857 933.919 144.611C927.799 150.081 921.585 155.437 915.276 160.686C911.901 163.493 908.677 166.464 905.611 169.606Z" fill="#3A5137"/>
<path d="M728.689 138.189L758.05 138.208C758.365 138.214 758.624 138.473 758.624 138.795V161.695C758.624 161.979 758.397 162.206 758.113 162.206H728.86C728.576 162.206 728.342 162.44 728.342 162.724V259.506C728.342 259.954 727.983 260.313 727.541 260.307L701.965 260.111C701.637 260.111 701.372 259.84 701.372 259.512V162.85C701.372 162.496 701.089 162.206 700.735 162.206L682.964 162.25C682.68 162.257 682.446 162.023 682.446 161.739L682.484 138.656C682.484 138.41 682.68 138.208 682.926 138.208L700.767 138.183C701.108 138.183 701.385 137.918 701.379 137.59C701.303 129.186 701.354 120.935 701.53 112.841C701.612 109.137 702.369 105.1 703.801 100.715C705.889 94.356 709.877 89.7884 715.763 87.0126C717.27 86.2997 718.974 85.6815 720.866 85.1452C722.463 84.6973 724.235 84.3566 726.178 84.1295C730.594 83.6059 735.787 83.3472 741.748 83.3472C749.161 83.3472 756.763 83.3472 764.554 83.3472C764.851 83.3472 765.091 83.587 765.091 83.8835V108.601C765.091 108.961 764.8 109.251 764.447 109.257C754.145 109.377 743.773 109.415 733.339 109.371C733.32 109.371 732.828 109.345 731.862 109.289C729.604 109.156 728.443 110.304 728.38 112.721C728.279 116.519 728.279 124.903 728.38 137.88C728.38 138.05 728.519 138.189 728.689 138.189Z" fill="#3A5137"/>
<path d="M27.5186 186.218C27.3041 186.218 27.1275 186.394 27.1275 186.615V259.462C27.1275 259.84 26.8184 260.149 26.4399 260.149H0.517315C0.252349 260.149 0.0378508 259.935 0.0378508 259.676L0 90.3124C0 90.0348 0.227116 89.814 0.5047 89.8077L26.4588 89.7004C26.8058 89.6941 27.0897 89.9717 27.0897 90.3187L27.1275 161.096C27.1275 161.273 27.2726 161.418 27.4492 161.418C48.369 161.418 69.131 161.386 89.7416 161.323C90.5428 161.317 91.3251 161.399 92.0884 161.569C92.4228 161.645 92.7382 161.393 92.7382 161.052V90.0474C92.7382 89.9212 92.8455 89.814 92.9716 89.814H119.43C119.67 89.814 119.866 90.0095 119.866 90.2493V259.519C119.866 259.866 119.582 260.149 119.235 260.149H93.4259C93.0473 260.149 92.7382 259.84 92.7382 259.462V186.691C92.7382 186.407 92.5111 186.18 92.2272 186.18L27.5186 186.218Z" fill="#3A5137"/>
<path d="M363.61 89.6688C366.026 89.6246 368.569 89.6246 371.25 89.6688C371.591 89.6751 371.862 89.959 371.856 90.2996C371.647 114.229 371.66 138.246 371.893 162.358C371.9 162.566 372.001 162.749 372.165 162.837C372.814 163.184 373.363 163.165 373.811 162.774C374.064 162.553 374.278 162.131 374.461 161.5C375.994 156.169 378.253 151.475 381.243 147.419C388.517 137.571 398.075 132.057 409.916 130.884C413.91 130.486 418.099 130.663 422.483 131.401C438.917 134.177 451.011 143.249 458.765 158.617C460.796 162.648 462.411 166.938 463.61 171.499C464.581 175.183 465.281 179.328 465.704 183.934C467.023 198.191 465.616 212.134 461.484 225.767C460.045 230.511 457.982 235.268 455.288 240.043C452.115 245.677 448.09 250.497 443.207 254.509C439.883 257.247 436.299 259.424 432.463 261.045C426.325 263.638 420.067 264.704 413.695 264.25C398.888 263.196 387.659 256.396 380.013 243.86C377.508 239.753 375.59 234.984 374.266 229.552C373.994 228.448 373.262 228.158 372.064 228.675C371.893 228.751 371.78 228.921 371.78 229.123L371.742 259.575C371.742 259.891 371.49 260.149 371.174 260.149H345.126C344.93 260.149 344.772 259.992 344.772 259.796L344.734 90.1798C344.734 89.8896 344.968 89.6561 345.258 89.6561C348.886 89.6624 352.463 89.6877 355.977 89.7255C357.705 89.7444 360.248 89.7255 363.61 89.6688ZM427.782 165.468C424.041 161.09 419.644 158.333 414.603 157.197C405.815 155.223 398.163 157.481 391.659 163.985C387.955 167.689 385.274 171.783 383.609 176.281C378.984 188.772 378.593 201.567 382.423 214.67C384.031 220.19 386.586 225.029 390.075 229.199C392.605 232.221 395.627 234.523 399.141 236.107C402.604 237.678 406.226 238.397 409.998 238.277C414.092 238.145 417.834 237.015 421.228 234.877C425.454 232.214 428.792 228.82 431.24 224.701C433.978 220.102 435.895 215.023 436.987 209.478C438.816 200.229 438.577 191.044 436.274 181.915C434.722 175.764 431.889 170.282 427.782 165.468Z" fill="#3A5137"/>
<path d="M479.86 249.967C475.274 245.04 472.454 239.236 471.388 232.555C470.971 229.937 470.776 227.306 470.801 224.662C470.883 215.004 474.391 207.055 481.318 200.809C484.163 198.242 487.626 195.996 491.708 194.084C499.783 190.293 508.231 187.706 517.057 186.318C528.273 184.558 539.825 182.836 551.71 181.151C552.057 181.107 552.316 180.811 552.322 180.457C552.341 177.751 552.329 175.177 552.272 172.742C552.209 169.808 551.83 167.569 551.136 166.035C549.887 163.279 547.799 161.121 544.878 159.563C542.26 158.169 539.604 157.266 536.897 156.85C530.759 155.904 524.867 156.408 519.22 158.358C515.807 159.538 513.057 161.071 510.969 162.957C508.552 165.133 506.742 167.827 505.543 171.026C505.423 171.347 505.083 171.537 504.742 171.474L478.17 166.433C477.734 166.351 477.457 165.928 477.545 165.499C479.457 156.061 484.049 148.302 491.33 142.214C494.585 139.495 498.597 137.179 503.373 135.262C512.287 131.684 521.984 129.994 532.456 130.189C540.967 130.347 548.714 131.981 555.704 135.079C567.747 140.422 575.273 149.261 578.283 161.6C578.85 163.922 579.16 166.881 579.204 170.471C579.456 188.64 579.5 206.809 579.33 224.978C579.305 227.602 579.412 229.64 579.652 231.091C579.891 232.523 580.592 233.577 581.746 234.258C582.472 234.687 583.62 234.927 585.191 234.971C591.121 235.154 597.057 235.148 602.994 234.965C603.171 234.958 603.309 234.813 603.309 234.637L603.272 90.6021C603.272 90.274 603.543 90.0028 603.871 90.0091L630.039 90.1668C630.216 90.1668 630.361 90.3056 630.361 90.4759L630.399 260.054C630.399 260.364 630.147 260.616 629.838 260.622C616.696 260.685 603.637 260.635 590.654 260.464C586.352 260.408 582.314 259.796 578.541 258.622C575.053 257.531 572.296 255.657 570.277 252.995C568.725 250.957 567.539 248.005 566.719 244.137C565.829 239.948 565.482 235.677 565.678 231.331C565.69 231.129 565.59 230.94 565.419 230.858C564.202 230.22 563.438 230.504 563.129 231.709C563.016 232.151 562.952 232.391 562.94 232.435C560.536 239.93 556.694 246.131 551.42 251.039C542.582 259.272 532.052 263.474 519.839 263.644C514.382 263.713 508.981 263.228 503.632 262.18C498.402 261.158 493.443 259.379 488.762 256.85C485.412 255.039 482.447 252.749 479.86 249.967ZM502.591 232.132C504.679 233.804 506.893 234.958 509.234 235.583C517.504 237.81 525.662 237.255 533.693 233.911C546.726 228.486 552.84 218.638 552.026 204.374C552.013 204.121 551.786 203.932 551.534 203.964C543.219 204.948 534.98 206.001 526.822 207.124C519.952 208.064 516.224 208.6 515.631 208.733C511.764 209.597 508.237 211.029 505.051 213.029C501.928 214.991 499.947 217.742 499.121 221.281C498.622 223.407 498.622 225.35 499.133 227.098C499.714 229.072 500.868 230.75 502.591 232.132Z" fill="#3A5137"/>
<path d="M644.373 92.0468L670.807 92.0026C670.958 92.0026 671.084 92.1288 671.084 92.2802L671.141 123.9C671.141 124.051 671.015 124.177 670.864 124.177L644.43 124.221C644.279 124.221 644.153 124.095 644.153 123.944L644.096 92.3244C644.096 92.1667 644.216 92.0468 644.373 92.0468Z" fill="#3A5137"/>
<path d="M168.664 232.656C171.434 234.567 174.474 235.943 177.786 236.769C182.076 237.842 186.537 238.271 191.161 238.05C201.488 237.558 209.393 233.129 214.869 224.757C215.021 224.524 215.311 224.417 215.576 224.499L240.457 232.006C240.722 232.088 240.848 232.385 240.729 232.637C235.07 244.188 226.629 252.711 215.405 258.219C205.999 262.83 195.867 264.792 185.01 264.117C167.882 263.051 154.04 255.954 143.486 242.838C138.382 236.498 134.534 229.262 131.954 221.136C127.317 206.557 126.768 191.801 130.301 176.88C133.688 162.56 140.843 151.109 151.763 142.529C160.753 135.47 171.408 131.559 183.742 130.783C199.305 129.805 212.667 134.379 223.84 144.504C228.313 148.554 232.224 153.576 235.568 159.563C240.123 167.72 243.12 176.42 244.552 185.662C245.668 192.823 246.097 199.939 245.851 207.017C245.845 207.27 245.637 207.471 245.384 207.471H157.725C157.466 207.471 157.252 207.686 157.252 207.945C157.201 214.55 158.759 220.411 161.933 225.527C163.718 228.41 165.964 230.788 168.664 232.656ZM195.691 185.561C202.706 185.542 209.727 185.555 216.755 185.586C216.97 185.593 217.14 185.416 217.134 185.202C216.957 175.669 213.431 168.282 206.561 163.039C203.305 160.56 199.514 158.831 195.192 157.866C189.369 156.573 183.597 156.724 177.862 158.333C173.503 159.55 169.8 161.456 166.74 164.042C160.86 169.02 157.681 175.915 157.201 184.741C157.176 185.246 157.58 185.668 158.084 185.668C170.405 185.624 182.941 185.593 195.691 185.561Z" fill="#3A5137"/>
<path d="M777.827 244.888C770.238 236.233 765.203 226.176 762.724 214.726C760.068 202.481 759.898 190.696 762.201 179.385C764.604 167.568 769.771 157.342 777.688 148.705C780.559 145.576 783.738 142.845 787.227 140.51C798.766 132.782 811.68 129.603 825.969 130.978C836.24 131.968 845.349 135.608 853.305 141.898C856.484 144.415 859.449 147.38 862.206 150.806C866.925 156.667 870.559 163.203 873.114 170.414C876.294 179.385 878.029 188.633 878.313 198.159C878.401 201.194 878.395 204.14 878.3 206.998C878.294 207.263 878.073 207.471 877.808 207.471H790.053C789.858 207.471 789.7 207.629 789.694 207.824C789.669 213.95 791.038 219.565 793.795 224.662C795.353 227.545 797.517 230.006 800.274 232.044C802.633 233.791 805.523 235.192 808.936 236.251C816.556 238.624 824.348 238.649 832.303 236.327C838.839 234.422 843.785 230.637 847.141 224.971C847.387 224.555 847.886 224.366 848.346 224.505L872.994 231.974C873.297 232.069 873.449 232.416 873.303 232.7C867.298 244.8 858.289 253.569 846.277 259.007C837.388 263.032 827.887 264.761 817.774 264.193C801.624 263.284 788.306 256.849 777.827 244.888ZM813.945 185.586C817.774 185.637 825.931 185.63 838.416 185.561C838.927 185.561 840.725 185.611 843.798 185.719C845.64 185.788 847.438 185.738 849.198 185.573C849.45 185.548 849.639 185.334 849.633 185.081C849.513 178.943 847.892 173.587 844.769 169C842.378 165.487 839.274 162.711 835.464 160.673C831.672 158.648 827.458 157.474 822.815 157.159C818.228 156.85 813.888 157.298 809.787 158.503C805.567 159.746 801.901 161.733 798.791 164.465C793.094 169.467 790.072 176.205 789.726 184.678C789.7 185.22 790.136 185.668 790.678 185.655C798.223 185.51 805.977 185.485 813.945 185.586Z" fill="#3A5137"/>
<path d="M254.885 152.775C254.841 148.832 254.834 144.781 254.879 140.618C254.885 140.258 255.175 139.968 255.535 139.968H281.577C281.811 139.968 282 140.157 282 140.39V165.688C282 165.897 282.151 166.073 282.359 166.105C283.337 166.256 284.056 166.073 284.511 165.556C284.567 165.493 284.851 164.9 285.356 163.783C288.933 155.878 294.03 149.267 300.648 143.949C303.986 141.267 307.714 139.413 311.846 138.378C313.853 137.873 316.792 137.621 320.672 137.627C324.729 137.634 328.76 137.583 332.772 137.488C332.949 137.482 333.1 137.627 333.1 137.81V163.335C333.1 163.644 332.848 163.897 332.539 163.903C327.208 163.935 321.896 163.954 316.609 163.947C312.174 163.947 308.995 164.187 307.071 164.666C303.885 165.461 300.951 166.862 298.283 168.868C294.478 171.726 291.381 175.316 288.99 179.637C286.422 184.268 284.612 189.182 283.552 194.374C282.523 199.421 282.006 204.525 282.006 209.679C282.025 226.435 282.006 243.065 281.962 259.562C281.962 259.953 281.64 260.269 281.243 260.269L255.541 260.155C255.257 260.149 255.03 259.922 255.03 259.644C254.815 228.132 254.79 196.557 254.954 164.931C254.973 162.25 254.948 158.2 254.885 152.775Z" fill="#3A5137"/>
<path d="M644.53 139.98H670.699C670.926 139.98 671.109 140.163 671.109 140.39V259.751C671.109 259.979 670.926 260.162 670.699 260.162H644.53C644.303 260.162 644.12 259.979 644.12 259.751V140.39C644.12 140.163 644.303 139.98 644.53 139.98Z" fill="#3A5137"/>
</svg>
