<svg width="345" height="411" viewBox="0 0 345 411" fill="none" xmlns="http://www.w3.org/2000/svg">
<path d="M322.808 0.57563C352.771 48.5084 352.865 96.089 313.965 141.932C300.253 158.089 284.166 172.321 268.456 186.694C251.592 202.1 233.906 216.59 215.608 232.325C211.257 222.908 206.036 213.208 202.179 202.993C188.444 166.426 194.535 132.467 216.761 100.903C230.025 82.045 246.512 66.2161 263.869 51.2327C283.39 34.394 302.982 17.6257 322.832 0.599115L322.808 0.57563Z" fill="#3A5137"/>
<path d="M215.708 411C188.073 367.224 186.051 321.687 217.073 278.85C233.183 256.61 253.574 238.667 274.295 221.007C290.217 207.456 305.975 193.694 322.25 179.65C323.449 181.669 325.166 184.394 326.695 187.212C335.162 202.782 341.159 219.128 342.994 236.929C345.322 259.78 339.701 280.658 328.294 300.268C316.935 319.761 301.812 336.13 285.043 350.949C262.206 371.146 238.945 390.873 215.685 410.953L215.708 411Z" fill="#3A5137"/>
<path d="M0 94.4196C53.3648 78.4263 99.9561 89.9574 134.529 139.205C145.583 154.964 154.732 172.155 163.622 189.275C175.1 211.422 185.448 234.155 196.478 257.053C181.52 261.421 165.551 264.216 148.993 263.441C105.765 261.445 77.0955 236.903 55.1992 202.521C47.2498 190.027 40.2882 176.852 33.6323 163.606C22.1549 140.802 11.2892 117.67 0.023542 94.4196H0Z" fill="#3A5137"/>
</svg>
