<?xml version="1.0"?>
<svg width="70" height="70" xmlns="http://www.w3.org/2000/svg" xmlns:svg="http://www.w3.org/2000/svg">
 <g class="layer">
  <title>Layer 1</title>
  <path d="m355.93,45.01c1.97,0 3.62,1.55 3.62,3.58a3.59,3.59 0 0 1 -3.62,3.63c-1.97,0 -3.63,-1.56 -3.63,-3.63c0,-2.03 1.66,-3.58 3.63,-3.58zm0,6.68c1.67,0 2.96,-1.33 2.96,-3.1c0,-1.72 -1.29,-3.05 -2.96,-3.05c-1.68,0 -2.97,1.33 -2.97,3.05c-0.01,1.77 1.28,3.1 2.97,3.1zm-1.4,-5.19l1.62,0c1.01,0 1.48,0.4 1.48,1.21c0,0.76 -0.48,1.08 -1.11,1.14l1.21,1.86l-0.71,0l-1.14,-1.81l-0.69,0l0,1.81l-0.66,0l0,-4.21l0,0zm0.65,1.87l0.69,0c0.57,0 1.1,-0.03 1.1,-0.69c0,-0.56 -0.48,-0.65 -0.92,-0.65l-0.87,0l0,1.34z" fill="#7ac143" id="svg_1"/>
  <g fill="#7ac143" id="svg_2">
   <path d="m104.34,51.67l-6.81,0l0,-16.26l-14.14,0l0,16.26l-6.8,0l0,-33.78l6.8,0l0,12.99l14.14,0l0,-12.99l6.81,0l0,33.78zm30.41,-29.24l-11.34,0l0,9.27l11.1,0l0,4.53l-11.1,0l0,10.91l13.42,0l0,4.53l-20.23,0l0,-33.78l18.15,0l0,4.54zm12.27,-4.54l11.73,0c6.46,0 10.81,3.09 10.81,8.84c0,5.02 -2.51,7.91 -5.7,9.79l8.4,15.15l-7.82,0l-6.56,-13.51l-4.06,0l0,13.51l-6.8,0l0,-33.78zm6.8,15.74l2.75,0c4.68,0 6.18,-3.62 6.18,-6.08c0,-3.82 -2.7,-5.12 -5.4,-5.12l-3.53,0l0,11.2zm26.94,18.04l0,-33.78l12.21,0c5.69,0 9.7,2.61 9.7,7.2c0,5.4 -4.39,7.62 -6.76,8.25l0,0.09c4.2,0.2 8.88,3.09 8.88,8.25c0,5.84 -4.87,9.99 -12.84,9.99l-11.19,0zm6.8,-19.69l2.13,0c3.91,0 6.56,-2.51 6.56,-5.64c0,-2.99 -2.22,-4.3 -5.17,-4.3l-3.52,0l0,9.94zm0,15.54l3.48,0c3.76,0 6.61,-1.97 6.61,-5.74c0,-3.95 -2.94,-5.64 -6.66,-5.64l-3.43,0l0,11.39l0,-0.01zm42.12,-29.63l12.69,33.78l-7.63,0l-3.14,-9.21l-11.97,0l-3.47,9.21l-5.89,0l13.75,-33.78l5.66,0zm0.91,20.42c-1.44,-4.44 -2.89,-8.54 -4.48,-13.76l-0.1,0c-1.4,5.22 -2.99,9.32 -4.59,13.76l9.17,0zm20.09,-20.42l6.8,0l0,29.25l13.42,0l0,4.53l-20.22,0l0,-33.78l0,0zm29.3,33.78l0,-33.78l6.81,0l0,33.78l-6.81,0zm37.17,-29.24l-11.29,0l0,11.1l11.1,0l0,4.53l-11.1,0l0,13.61l-6.81,0l0,-33.78l18.1,0l0,4.54zm27.83,0l-11.35,0l0,9.27l11.11,0l0,4.53l-11.11,0l0,10.91l13.42,0l0,4.53l-20.22,0l0,-33.78l18.15,0l0,4.54l0,0z" id="svg_3"/>
  </g>
  <g fill="#7ac143" id="svg_4">
   <path d="m34.03,60.65c-14.24,0 -25.75,-11.54 -25.75,-25.75c0,-14.23 11.51,-25.76 25.75,-25.76c14.22,0 25.73,11.52 25.73,25.76c0,14.21 -11.51,25.75 -25.73,25.75zm0,-53.19c-15.15,0 -27.43,12.29 -27.43,27.44c0,15.15 12.28,27.43 27.43,27.43c15.13,0 27.42,-12.28 27.42,-27.43c0,-15.15 -12.28,-27.44 -27.42,-27.44z" id="svg_5"/>
   <path d="m10.39,34.72c9.36,2.95 18.19,12.08 20.86,23.76c-13.16,-1.72 -20.83,-12.53 -20.86,-23.76zm47.15,0c-9.36,2.95 -18.3,12.08 -20.86,23.76c13.15,-1.72 20.83,-12.53 20.86,-23.76zm-23.55,23.76c-9.97,-15.41 -7.82,-36.53 0.01,-47.91c7.47,11.38 9.81,32.5 -0.01,47.91z" id="svg_6"/>
  </g>
 </g>
</svg>